PathFileType	4	(x/y/z)	S02_M20_T04
DataRate	CameraRate	NumFrames	NumMarkers	Units	OrigDataRate	OrigDataStartFrame	OrigNumFrames
240	240	4	51	mm	240	59	466
Frame#	Time	Sternum			R.Acromium			L.Acromium			Top.Head			R.ASIS			L.ASIS			R.PSIS			L.PSIS			R.Great.Tro			L.Great.Tro			R.Iliac.Crest			L.Iliac.Crest			V.Sacral			R.Thigh.Upper.Post			R.Thigh.Lower.Ant			R.Thigh.Lower.Post			R.Thigh.Upper.Ant			R.Knee.Lat			R.Knee.Med			R.Shank.Upper.Post			R.Shank.Lower.Ant			R.Shank.Lower.Post			R.Shank.Upper.Ant			R.Ankle.Lat			R.Ankle.Med			R.Heel.Upper			R.Heel.Med			R.Heel.Lat			R.Toe.Lat			R.Toe.Med			R.Toe.Tip			L.Thigh.Upper.Post			L.Thigh.Lower.Ant			L.Thigh.Lower.Post			L.Thigh.Upper.Ant			L.Knee.Lat			L.Knee.Med			L.Shank.Upper.Post			L.Shank.Lower.Ant			L.Shank.Lower.Post			L.Shank.Upper.Ant			L.Ankle.Lat			L.Ankle.Med			L.Heel.Upper			L.Heel.Med			L.Heel.Lat			L.Toe.Lat			L.Toe.Med			L.Toe.Tip			Cervical.Spine			Back			
		X1	Y1	Z1	X2	Y2	Z2	X3	Y3	Z3	X4	Y4	Z4	X5	Y5	Z5	X6	Y6	Z6	X7	Y7	Z7	X8	Y8	Z8	X9	Y9	Z9	X10	Y10	Z10	X11	Y11	Z11	X12	Y12	Z12	X13	Y13	Z13	X14	Y14	Z14	X15	Y15	Z15	X16	Y16	Z16	X17	Y17	Z17	X18	Y18	Z18	X19	Y19	Z19	X20	Y20	Z20	X21	Y21	Z21	X22	Y22	Z22	X23	Y23	Z23	X24	Y24	Z24	X25	Y25	Z25	X26	Y26	Z26	X27	Y27	Z27	X28	Y28	Z28	X29	Y29	Z29	X30	Y30	Z30	X31	Y31	Z31	X32	Y32	Z32	X33	Y33	Z33	X34	Y34	Z34	X35	Y35	Z35	X36	Y36	Z36	X37	Y37	Z37	X38	Y38	Z38	X39	Y39	Z39	X40	Y40	Z40	X41	Y41	Z41	X42	Y42	Z42	X43	Y43	Z43	X44	Y44	Z44	X45	Y45	Z45	X46	Y46	Z46	X47	Y47	Z47	X48	Y48	Z48	X49	Y49	Z49	X50	Y50	Z50	X51	Y51	Z51	

59	0.24167	-1203	1092.8	299.23	-1320.1	1336.1	428.44	-1305.1	1324.9	136.05	-1267.6	1614.7	265.32	-1246.3	907.6	415.29	-1213.8	909.35	201.23	-1453.3	948.45	331.72	-1454.5	959.87	257.47	-1348.7	792.61	497.86	-1319.5	830.22	100.95	-1365.6	962.95	462.68	-1330.1	965.07	122.08	-1478.1	906.3	282.59	-1315.8	598.57	497.23	-1251.2	518.57	485.67	-1324.6	508.82	485.5	-1245.2	607.88	494.28	-1312.2	433.57	484.52	-1284.6	407	342.36	NaN	NaN	NaN	-1523.7	254.42	432.26	-1556.5	313.56	430.41	-1462.5	289.52	441.44	-1619.7	240.24	415.06	-1585	236.26	333.03	-1645.8	287.36	356.12	-1658.4	264.65	322.37	-1683.7	272.32	384.74	-1628.8	120.22	432.3	-1595.6	94.438	329.52	-1561.5	61.357	389.98	-1305.1	595.27	133.9	-1212.6	536.03	148.49	-1287	509.74	161.67	-1239.9	623.7	121.69	-1216.5	452.12	165.92	-1224.5	456.95	301.71	-1297.3	283.79	170.25	-1233.6	195.36	194.07	-1304.2	212.36	189.6	-1236.6	268.64	174.38	-1284.9	95.596	210.61	-1277.9	96.077	293.18	-1348.2	67.976	247.12	-1339.1	42.767	280.06	-1342.1	40.588	218.63	-1175.8	34.815	190.73	-1156.3	44.298	301.92	-1095.3	59.311	254.53	-1394.6	1394.4	278.48	-1470.4	1142.9	293.25
60	0.24583	-1197.9	1093.8	299.27	-1315.6	1337.3	428.43	-1299.9	1325.8	135.85	-1262.2	1615.7	265.28	-1241.1	908.81	415.21	-1208.7	909.87	201.04	-1448.1	949.71	331.31	-1449.3	961.06	257.05	-1343.3	793.89	497.6	-1315.3	830.82	100.82	-1360.4	964.17	462.29	-1324.8	965.8	121.76	-1473.1	907.57	282.24	-1307.4	600.01	497.45	-1242.1	520.74	486.01	-1315.2	510.16	485.74	-1237.2	610.1	494.64	-1301.6	435.05	484.76	-1273.9	408.87	342.56	NaN	NaN	NaN	-1511.2	253.98	432.5	-1545	312.96	430.75	-1451.4	289.76	442.24	-1607.6	239.15	415.36	-1573.2	235.32	333.51	-1635	285.26	356.16	-1647.1	261.92	322.6	-1672.3	269.91	384.99	-1614.2	119.23	433.36	-1580.4	93.462	330.66	-1545.7	61.506	391.41	-1302.6	595.95	134.02	-1210.6	535.91	148.36	-1285.2	510.26	161.69	-1237.2	623.83	121.61	-1215.2	452.07	165.82	-1222.7	456.95	301.62	-1296.5	284.07	170.18	-1233.1	195.42	194.01	-1303.7	212.51	189.72	-1236	268.68	174.31	-1284.9	95.771	210.59	-1277.7	96.193	293.12	-1348.1	68.132	247.1	-1339	42.929	280.03	-1342	40.73	218.61	-1175.8	34.795	190.73	-1156.3	44.28	301.91	-1095.3	59.235	254.5	-1389.5	1395.4	278.14	-1465.2	1143.8	292.5
61	0.25	-1192.9	1094.7	299.31	-1310.9	1338.4	428.43	-1294.6	1326.7	135.67	-1256.9	1616.7	265.27	-1236	910.03	415.11	-1203.8	910.41	200.83	-1442.9	950.99	330.93	-1444.2	962.26	256.67	-1337.8	795.19	497.34	-1311.1	831.41	100.71	-1355.3	965.42	461.91	-1319.5	966.52	121.45	-1468.1	908.85	281.94	-1299	601.47	497.65	-1233	522.94	486.3	-1305.8	511.53	485.95	-1229.2	612.35	494.96	-1291	436.57	484.93	-1263.3	410.83	342.7	NaN	NaN	NaN	-1498.5	253.39	432.73	-1533.4	312.17	431.12	-1440.2	289.96	443.02	-1595.4	237.86	415.68	-1561.4	234.18	334	-1624	282.91	356.24	-1635.6	258.92	322.86	-1660.7	267.2	385.28	-1599.3	118.04	434.43	-1565	92.354	331.8	-1529.6	61.567	392.81	-1300.2	596.64	134.14	-1208.7	535.81	148.24	-1283.5	510.81	161.72	-1234.6	623.96	121.55	-1213.8	452.04	165.75	-1220.9	456.98	301.56	-1295.8	284.37	170.12	-1232.7	195.5	193.96	-1303.3	212.64	189.89	-1235.4	268.73	174.25	-1285	95.958	210.57	-1277.6	96.317	293.07	-1348	68.294	247.08	-1339	43.097	280.01	-1342	40.877	218.59	-1175.8	34.776	190.73	-1156.3	44.263	301.9	-1095.2	59.16	254.47	-1384.5	1396.4	277.81	-1460.1	1144.8	291.76
62	0.25417	-1187.9	1095.7	299.35	-1306.2	1339.4	428.41	-1289.4	1327.6	135.5	-1251.5	1617.6	265.29	-1230.9	911.27	414.98	-1198.8	910.96	200.6	-1437.6	952.28	330.59	-1439	963.45	256.32	-1332.3	796.5	497.08	-1306.9	832.01	100.62	-1350.1	966.7	461.54	-1314.3	967.23	121.15	-1463.1	910.14	281.69	-1290.7	602.95	497.83	-1224	525.17	486.52	-1296.4	512.94	486.12	-1221.3	614.61	495.22	-1280.4	438.11	485.02	-1252.7	412.86	342.76	NaN	NaN	NaN	-1485.8	252.65	432.93	-1521.8	311.19	431.49	-1428.9	290.11	443.78	-1583	236.35	416.02	-1549.4	232.86	334.49	-1613	280.29	356.35	-1624.1	255.66	323.16	-1649	264.2	385.61	-1584.1	116.68	435.49	-1549.4	91.125	332.93	-1513.3	61.548	394.19	-1297.8	597.35	134.27	-1206.8	535.72	148.14	-1281.8	511.37	161.76	-1231.9	624.1	121.5	-1212.5	452.04	165.68	-1219.1	457.02	301.5	-1295.1	284.69	170.08	-1232.3	195.59	193.9	-1302.9	212.77	190.11	-1234.7	268.81	174.19	-1285	96.156	210.54	-1277.5	96.452	293.02	-1348	68.463	247.07	-1339	43.273	279.98	-1341.9	41.03	218.58	-1175.7	34.757	190.73	-1156.2	44.248	301.88	-1095.1	59.084	254.44	-1379.4	1397.4	277.5	-1455	1145.8	291.04
